<svg id="logo" xmlns="http://www.w3.org/2000/svg" viewBox="0 0 163.26 47.56"><title>Logotype_RH_Academy_RGB_Black</title><path d="M32.69,34.3L30,28.64H28.08V34.3H23.5V17.5H31c3.94,0,6.55,1.49,6.55,5.47a5,5,0,0,1-3,4.92L37.9,34.3H32.69Zm-1.8-13H28.08V25h2.74c1.51,0,2.11-.67,2.11-1.87S32.36,21.29,30.89,21.29Z" transform="translate(-22.1 -17.39)"/><path d="M41.4,34.3V17.5H54.27v3.91H46v2.23h5v3.86H46v2.88h8.42V34.3h-13Z" transform="translate(-22.1 -17.39)"/><path d="M63.58,34.3H58.13V17.5H64c5.28,0,8.64,2,8.64,8.3S69.53,34.3,63.58,34.3ZM64,21.48H62.84v8.83h1c2.9,0,4-1.1,4-4.44C67.88,22.78,66.89,21.48,64,21.48Z" transform="translate(-22.1 -17.39)"/><path d="M94.8,34.3V27.68H89.57V34.3H84.82V17.5h4.75v6.12H94.8V17.5h4.75V34.3H94.8Z" transform="translate(-22.1 -17.39)"/><path d="M114.53,34.3l-0.91-3h-5l-0.91,3h-5l6.1-16.8h4.7l6.1,16.8h-5Zm-2.35-7.75c-0.6-2.16-.86-3.07-1.08-4.2-0.22,1.13-.48,2.06-1.08,4.2l-0.31,1.1h2.78Z" transform="translate(-22.1 -17.39)"/><path d="M129.08,21.56V34.3h-4.66V21.56h-4.71V17.5h14.07v4.06h-4.7Z" transform="translate(-22.1 -17.39)"/><path d="M138,21.72a2.16,2.16,0,1,1,2.17-2.16A2.12,2.12,0,0,1,138,21.72Zm0-4a1.82,1.82,0,1,0,1.82,1.82A1.78,1.78,0,0,0,138,17.73Zm0.49,2,0.49,1h-0.47L138,19.78h-0.46v0.91h-0.4V18.33h1A0.69,0.69,0,0,1,139,19,0.67,0.67,0,0,1,138.5,19.74Zm-0.28-1h-0.62v0.67h0.62a0.33,0.33,0,0,0,.38-0.34A0.33,0.33,0,0,0,138.22,18.72Z" transform="translate(-22.1 -17.39)"/><path d="M39.74,64.3l-2.16-6.41H27.17L25,64.3H22.1l8.75-25.2h3.1l8.75,25.2h-3Zm-5.8-17.24q-0.22-.61-0.45-1.33L33,44.34q-0.22-.67-0.38-1.26l-0.27-1-0.27,1q-0.16.58-.38,1.26t-0.47,1.42l-0.47,1.39L28,55.34h8.68Z" transform="translate(-22.1 -17.39)"/><path d="M61.16,63.54a9.7,9.7,0,0,1-4.82,1.15,8.9,8.9,0,0,1-4.19-1A9.72,9.72,0,0,1,48.92,61a12.65,12.65,0,0,1-2.05-4.1,17.66,17.66,0,0,1-.72-5.15,17.2,17.2,0,0,1,.76-5.2A13,13,0,0,1,49,42.41a9.85,9.85,0,0,1,3.26-2.72,8.93,8.93,0,0,1,4.18-1,9.37,9.37,0,0,1,8,4l-2.23,1.69A8.74,8.74,0,0,0,59.72,42a6.59,6.59,0,0,0-3.35-.76,6,6,0,0,0-3,.77A7.23,7.23,0,0,0,51,44.18a10.89,10.89,0,0,0-1.53,3.28A15,15,0,0,0,49,51.66a15.14,15.14,0,0,0,.56,4.23,10.56,10.56,0,0,0,1.57,3.31,7.48,7.48,0,0,0,2.38,2.16,5.89,5.89,0,0,0,3,.77,6.87,6.87,0,0,0,3.53-.86,9.53,9.53,0,0,0,2.7-2.45l1.94,1.69A10.63,10.63,0,0,1,61.16,63.54Z" transform="translate(-22.1 -17.39)"/><path d="M85.53,64.3l-2.16-6.41H73l-2.2,6.41H67.89l8.75-25.2h3.1l8.75,25.2h-3Zm-5.8-17.24q-0.22-.61-0.45-1.33l-0.45-1.39q-0.22-.67-0.38-1.26l-0.27-1-0.27,1q-0.16.58-.38,1.26t-0.47,1.42L76.6,47.13l-2.77,8.21H82.5Z" transform="translate(-22.1 -17.39)"/><path d="M110.93,57.37a10.56,10.56,0,0,1-2.54,4,9.73,9.73,0,0,1-3.82,2.25,15.39,15.39,0,0,1-4.72.7H93.7V39.1h6.66a14.1,14.1,0,0,1,4.59.72,9.35,9.35,0,0,1,3.64,2.25A10.55,10.55,0,0,1,111,45.94a16.13,16.13,0,0,1,.86,5.58A16.57,16.57,0,0,1,110.93,57.37Zm-4.16-13.16q-2.27-2.56-6.62-2.56H96.51V61.74h3.71a11.24,11.24,0,0,0,3.67-.56,6.78,6.78,0,0,0,2.77-1.78,8.09,8.09,0,0,0,1.76-3.15,15.4,15.4,0,0,0,.61-4.63Q109,46.77,106.77,44.21Z" transform="translate(-22.1 -17.39)"/><path d="M117.39,64.3V39.1h15.23v2.56H120.2v7.92h7.2v2.56h-7.2v9.61h13V64.3H117.39Z" transform="translate(-22.1 -17.39)"/><path d="M157.56,64.3V44.54l-0.27.88c-0.11.35-.23,0.71-0.38,1.08l-0.43,1.13c-0.14.38-.29,0.74-0.43,1.08l-6.72,16.24-6.61-16.24q-0.22-.47-0.43-1.06l-0.41-1.15q-0.2-.56-0.36-1.08l-0.27-.88V64.3h-2.74V39.1h3.14l6,15.08q0.22,0.58.49,1.26t0.52,1.37l0.47,1.28q0.22,0.59.33,1,0.11-.4.32-1l0.47-1.3q0.25-.68.52-1.37l0.49-1.22,6-15.08h3.06V64.3h-2.74Z" transform="translate(-22.1 -17.39)"/><path d="M176.71,54.29v10h-2.81v-10L165.27,39.1h3.2l4,7.24q0.76,1.37,1.53,2.83t1.31,2.57q0.54-1.12,1.31-2.57t1.53-2.83l4-7.24h3.13Z" transform="translate(-22.1 -17.39)"/></svg>